<svg viewBox="0 0 500 420" xmlns="http://www.w3.org/2000/svg">
  <!-- Background -->
  <rect width="500" height="420" fill="#f5f5f5" stroke="none"/>
  
  <!-- KeyTag Device Frame -->
  <rect x="30" y="30" width="440" height="360" rx="25" ry="25" fill="#e8e8e8" stroke="#999" stroke-width="3"/>
  <rect x="40" y="40" width="420" height="340" rx="20" ry="20" fill="#f8f8f8" stroke="#ccc" stroke-width="1"/>
  
  <!-- Header with logo/title area -->
  <circle cx="90" cy="80" r="20" fill="#666" stroke="#999" stroke-width="2"/>
  <text x="90" y="77" text-anchor="middle" font-family="Arial, sans-serif" font-size="10" font-weight="bold" fill="#fff">
    KEY
  </text>
  <text x="90" y="87" text-anchor="middle" font-family="Arial, sans-serif" font-size="10" font-weight="bold" fill="#fff">
    TAG
  </text>
  
  <!-- SLIP-39 indicator -->
  <text x="120" y="73" font-family="Arial, sans-serif" font-size="9" font-weight="bold" fill="#333">
    SLIP-39
  </text>
  <text x="120" y="83" font-family="Arial, sans-serif" font-size="7" fill="#666">
    Dotmap
  </text>
  <text x="120" y="91" font-family="Arial, sans-serif" font-size="7" fill="#666">
    Backup
  </text>
  
  <!-- Bit position header -->
  <g transform="translate(160, 110)">
    <!-- Column headers showing bit positions -->
    <text x="0" y="12" font-family="monospace" font-size="7" font-weight="bold" fill="#333" text-anchor="middle">2048</text>
    <text x="20" y="12" font-family="monospace" font-size="7" font-weight="bold" fill="#333" text-anchor="middle">1024</text>
    <text x="40" y="12" font-family="monospace" font-size="7" font-weight="bold" fill="#333" text-anchor="middle">512</text>
    <text x="60" y="12" font-family="monospace" font-size="7" font-weight="bold" fill="#333" text-anchor="middle">256</text>
    <text x="80" y="12" font-family="monospace" font-size="7" font-weight="bold" fill="#333" text-anchor="middle">128</text>
    <text x="100" y="12" font-family="monospace" font-size="7" font-weight="bold" fill="#333" text-anchor="middle">64</text>
    <text x="120" y="12" font-family="monospace" font-size="7" font-weight="bold" fill="#333" text-anchor="middle">32</text>
    <text x="140" y="12" font-family="monospace" font-size="7" font-weight="bold" fill="#333" text-anchor="middle">16</text>
    <text x="160" y="12" font-family="monospace" font-size="7" font-weight="bold" fill="#333" text-anchor="middle">8</text>
    <text x="180" y="12" font-family="monospace" font-size="7" font-weight="bold" fill="#333" text-anchor="middle">4</text>
    <text x="200" y="12" font-family="monospace" font-size="7" font-weight="bold" fill="#333" text-anchor="middle">2</text>
    <text x="220" y="12" font-family="monospace" font-size="7" font-weight="bold" fill="#333" text-anchor="middle">1</text>
    
    <!-- Separator line -->
    <line x1="-10" y1="20" x2="230" y2="20" stroke="#999" stroke-width="1"/>
  </g>
  
  <!-- Word rows -->
  
  <!-- Row 1: academic (index 0) -->
  <g transform="translate(70, 135)">
    <text x="0" y="12" font-family="Arial, sans-serif" font-size="10" font-weight="bold" fill="#333">1</text>
    <text x="15" y="12" font-family="monospace" font-size="9" fill="#666">academic</text>
    
    <!-- Dots for academic: 000000000001 -->
    <circle cx="90" cy="9" r="3" fill="#f8f8f8" stroke="#999" stroke-width="1"/>
    <circle cx="110" cy="9" r="3" fill="#f8f8f8" stroke="#999" stroke-width="1"/>
    <circle cx="130" cy="9" r="3" fill="#f8f8f8" stroke="#999" stroke-width="1"/>
    <circle cx="150" cy="9" r="3" fill="#f8f8f8" stroke="#999" stroke-width="1"/>
    <circle cx="170" cy="9" r="3" fill="#f8f8f8" stroke="#999" stroke-width="1"/>
    <circle cx="190" cy="9" r="3" fill="#f8f8f8" stroke="#999" stroke-width="1"/>
    <circle cx="210" cy="9" r="3" fill="#f8f8f8" stroke="#999" stroke-width="1"/>
    <circle cx="230" cy="9" r="3" fill="#f8f8f8" stroke="#999" stroke-width="1"/>
    <circle cx="250" cy="9" r="3" fill="#f8f8f8" stroke="#999" stroke-width="1"/>
    <circle cx="270" cy="9" r="3" fill="#f8f8f8" stroke="#999" stroke-width="1"/>
    <circle cx="290" cy="9" r="3" fill="#f8f8f8" stroke="#999" stroke-width="1"/>
    <circle cx="310" cy="9" r="3" fill="#333" stroke="#333" stroke-width="1"/>
  </g>
  
  <!-- Row 2: acid (index 1) -->
  <g transform="translate(70, 155)">
    <text x="0" y="12" font-family="Arial, sans-serif" font-size="10" font-weight="bold" fill="#333">2</text>
    <text x="15" y="12" font-family="monospace" font-size="9" fill="#666">acid</text>
    
    <!-- Dots for acid: 000000000010 -->
    <circle cx="90" cy="9" r="3" fill="#f8f8f8" stroke="#999" stroke-width="1"/>
    <circle cx="110" cy="9" r="3" fill="#f8f8f8" stroke="#999" stroke-width="1"/>
    <circle cx="130" cy="9" r="3" fill="#f8f8f8" stroke="#999" stroke-width="1"/>
    <circle cx="150" cy="9" r="3" fill="#f8f8f8" stroke="#999" stroke-width="1"/>
    <circle cx="170" cy="9" r="3" fill="#f8f8f8" stroke="#999" stroke-width="1"/>
    <circle cx="190" cy="9" r="3" fill="#f8f8f8" stroke="#999" stroke-width="1"/>
    <circle cx="210" cy="9" r="3" fill="#f8f8f8" stroke="#999" stroke-width="1"/>
    <circle cx="230" cy="9" r="3" fill="#f8f8f8" stroke="#999" stroke-width="1"/>
    <circle cx="250" cy="9" r="3" fill="#f8f8f8" stroke="#999" stroke-width="1"/>
    <circle cx="270" cy="9" r="3" fill="#f8f8f8" stroke="#999" stroke-width="1"/>
    <circle cx="290" cy="9" r="3" fill="#333" stroke="#333" stroke-width="1"/>
    <circle cx="310" cy="9" r="3" fill="#f8f8f8" stroke="#999" stroke-width="1"/>
  </g>
  
  <!-- Row 3: acne (index 2) -->
  <g transform="translate(70, 175)">
    <text x="0" y="12" font-family="Arial, sans-serif" font-size="10" font-weight="bold" fill="#333">3</text>
    <text x="15" y="12" font-family="monospace" font-size="9" fill="#666">acne</text>
    
    <!-- Dots for acne: 000000000011 -->
    <circle cx="90" cy="9" r="3" fill="#f8f8f8" stroke="#999" stroke-width="1"/>
    <circle cx="110" cy="9" r="3" fill="#f8f8f8" stroke="#999" stroke-width="1"/>
    <circle cx="130" cy="9" r="3" fill="#f8f8f8" stroke="#999" stroke-width="1"/>
    <circle cx="150" cy="9" r="3" fill="#f8f8f8" stroke="#999" stroke-width="1"/>
    <circle cx="170" cy="9" r="3" fill="#f8f8f8" stroke="#999" stroke-width="1"/>
    <circle cx="190" cy="9" r="3" fill="#f8f8f8" stroke="#999" stroke-width="1"/>
    <circle cx="210" cy="9" r="3" fill="#f8f8f8" stroke="#999" stroke-width="1"/>
    <circle cx="230" cy="9" r="3" fill="#f8f8f8" stroke="#999" stroke-width="1"/>
    <circle cx="250" cy="9" r="3" fill="#f8f8f8" stroke="#999" stroke-width="1"/>
    <circle cx="270" cy="9" r="3" fill="#f8f8f8" stroke="#999" stroke-width="1"/>
    <circle cx="290" cy="9" r="3" fill="#333" stroke="#333" stroke-width="1"/>
    <circle cx="310" cy="9" r="3" fill="#333" stroke="#333" stroke-width="1"/>
  </g>
  
  <!-- Row 4: acquire (index 3) -->
  <g transform="translate(70, 195)">
    <text x="0" y="12" font-family="Arial, sans-serif" font-size="10" font-weight="bold" fill="#333">4</text>
    <text x="15" y="12" font-family="monospace" font-size="9" fill="#666">acquire</text>
    
    <!-- Dots for acquire: 000000000100 -->
    <circle cx="90" cy="9" r="3" fill="#f8f8f8" stroke="#999" stroke-width="1"/>
    <circle cx="110" cy="9" r="3" fill="#f8f8f8" stroke="#999" stroke-width="1"/>
    <circle cx="130" cy="9" r="3" fill="#f8f8f8" stroke="#999" stroke-width="1"/>
    <circle cx="150" cy="9" r="3" fill="#f8f8f8" stroke="#999" stroke-width="1"/>
    <circle cx="170" cy="9" r="3" fill="#f8f8f8" stroke="#999" stroke-width="1"/>
    <circle cx="190" cy="9" r="3" fill="#f8f8f8" stroke="#999" stroke-width="1"/>
    <circle cx="210" cy="9" r="3" fill="#f8f8f8" stroke="#999" stroke-width="1"/>
    <circle cx="230" cy="9" r="3" fill="#f8f8f8" stroke="#999" stroke-width="1"/>
    <circle cx="250" cy="9" r="3" fill="#f8f8f8" stroke="#999" stroke-width="1"/>
    <circle cx="270" cy="9" r="3" fill="#333" stroke="#333" stroke-width="1"/>
    <circle cx="290" cy="9" r="3" fill="#f8f8f8" stroke="#999" stroke-width="1"/>
    <circle cx="310" cy="9" r="3" fill="#f8f8f8" stroke="#999" stroke-width="1"/>
  </g>
  
  <!-- Empty rows for demonstration -->
  <g transform="translate(70, 215)">
    <text x="0" y="12" font-family="Arial, sans-serif" font-size="10" font-weight="bold" fill="#333">5</text>
    <circle cx="90" cy="9" r="3" fill="#f8f8f8" stroke="#ccc" stroke-width="1" stroke-dasharray="2,2"/>
    <circle cx="110" cy="9" r="3" fill="#f8f8f8" stroke="#ccc" stroke-width="1" stroke-dasharray="2,2"/>
    <circle cx="130" cy="9" r="3" fill="#f8f8f8" stroke="#ccc" stroke-width="1" stroke-dasharray="2,2"/>
    <circle cx="150" cy="9" r="3" fill="#f8f8f8" stroke="#ccc" stroke-width="1" stroke-dasharray="2,2"/>
    <circle cx="170" cy="9" r="3" fill="#f8f8f8" stroke="#ccc" stroke-width="1" stroke-dasharray="2,2"/>
    <circle cx="190" cy="9" r="3" fill="#f8f8f8" stroke="#ccc" stroke-width="1" stroke-dasharray="2,2"/>
    <circle cx="210" cy="9" r="3" fill="#f8f8f8" stroke="#ccc" stroke-width="1" stroke-dasharray="2,2"/>
    <circle cx="230" cy="9" r="3" fill="#f8f8f8" stroke="#ccc" stroke-width="1" stroke-dasharray="2,2"/>
    <circle cx="250" cy="9" r="3" fill="#f8f8f8" stroke="#ccc" stroke-width="1" stroke-dasharray="2,2"/>
    <circle cx="270" cy="9" r="3" fill="#f8f8f8" stroke="#ccc" stroke-width="1" stroke-dasharray="2,2"/>
    <circle cx="290" cy="9" r="3" fill="#f8f8f8" stroke="#ccc" stroke-width="1" stroke-dasharray="2,2"/>
    <circle cx="310" cy="9" r="3" fill="#f8f8f8" stroke="#ccc" stroke-width="1" stroke-dasharray="2,2"/>
  </g>
  
  <!-- Continue pattern for rows 6-12 -->
  <g transform="translate(70, 235)">
    <text x="0" y="12" font-family="Arial, sans-serif" font-size="10" font-weight="bold" fill="#333">6</text>
    <circle cx="90" cy="9" r="3" fill="#f8f8f8" stroke="#ccc" stroke-width="1" stroke-dasharray="2,2"/>
    <circle cx="110" cy="9" r="3" fill="#f8f8f8" stroke="#ccc" stroke-width="1" stroke-dasharray="2,2"/>
    <circle cx="130" cy="9" r="3" fill="#f8f8f8" stroke="#ccc" stroke-width="1" stroke-dasharray="2,2"/>
    <circle cx="150" cy="9" r="3" fill="#f8f8f8" stroke="#ccc" stroke-width="1" stroke-dasharray="2,2"/>
    <circle cx="170" cy="9" r="3" fill="#f8f8f8" stroke="#ccc" stroke-width="1" stroke-dasharray="2,2"/>
    <circle cx="190" cy="9" r="3" fill="#f8f8f8" stroke="#ccc" stroke-width="1" stroke-dasharray="2,2"/>
    <circle cx="210" cy="9" r="3" fill="#f8f8f8" stroke="#ccc" stroke-width="1" stroke-dasharray="2,2"/>
    <circle cx="230" cy="9" r="3" fill="#f8f8f8" stroke="#ccc" stroke-width="1" stroke-dasharray="2,2"/>
    <circle cx="250" cy="9" r="3" fill="#f8f8f8" stroke="#ccc" stroke-width="1" stroke-dasharray="2,2"/>
    <circle cx="270" cy="9" r="3" fill="#f8f8f8" stroke="#ccc" stroke-width="1" stroke-dasharray="2,2"/>
    <circle cx="290" cy="9" r="3" fill="#f8f8f8" stroke="#ccc" stroke-width="1" stroke-dasharray="2,2"/>
    <circle cx="310" cy="9" r="3" fill="#f8f8f8" stroke="#ccc" stroke-width="1" stroke-dasharray="2,2"/>
  </g>
  
  <!-- Row 7 -->
  <g transform="translate(70, 255)">
    <text x="0" y="12" font-family="Arial, sans-serif" font-size="10" font-weight="bold" fill="#333">7</text>
    <circle cx="90" cy="9" r="3" fill="#f8f8f8" stroke="#ccc" stroke-width="1" stroke-dasharray="2,2"/>
    <circle cx="110" cy="9" r="3" fill="#f8f8f8" stroke="#ccc" stroke-width="1" stroke-dasharray="2,2"/>
    <circle cx="130" cy="9" r="3" fill="#f8f8f8" stroke="#ccc" stroke-width="1" stroke-dasharray="2,2"/>
    <circle cx="150" cy="9" r="3" fill="#f8f8f8" stroke="#ccc" stroke-width="1" stroke-dasharray="2,2"/>
    <circle cx="170" cy="9" r="3" fill="#f8f8f8" stroke="#ccc" stroke-width="1" stroke-dasharray="2,2"/>
    <circle cx="190" cy="9" r="3" fill="#f8f8f8" stroke="#ccc" stroke-width="1" stroke-dasharray="2,2"/>
    <circle cx="210" cy="9" r="3" fill="#f8f8f8" stroke="#ccc" stroke-width="1" stroke-dasharray="2,2"/>
    <circle cx="230" cy="9" r="3" fill="#f8f8f8" stroke="#ccc" stroke-width="1" stroke-dasharray="2,2"/>
    <circle cx="250" cy="9" r="3" fill="#f8f8f8" stroke="#ccc" stroke-width="1" stroke-dasharray="2,2"/>
    <circle cx="270" cy="9" r="3" fill="#f8f8f8" stroke="#ccc" stroke-width="1" stroke-dasharray="2,2"/>
    <circle cx="290" cy="9" r="3" fill="#f8f8f8" stroke="#ccc" stroke-width="1" stroke-dasharray="2,2"/>
    <circle cx="310" cy="9" r="3" fill="#f8f8f8" stroke="#ccc" stroke-width="1" stroke-dasharray="2,2"/>
  </g>
  
  <!-- Row 8 -->
  <g transform="translate(70, 275)">
    <text x="0" y="12" font-family="Arial, sans-serif" font-size="10" font-weight="bold" fill="#333">8</text>
    <circle cx="90" cy="9" r="3" fill="#f8f8f8" stroke="#ccc" stroke-width="1" stroke-dasharray="2,2"/>
    <circle cx="110" cy="9" r="3" fill="#f8f8f8" stroke="#ccc" stroke-width="1" stroke-dasharray="2,2"/>
    <circle cx="130" cy="9" r="3" fill="#f8f8f8" stroke="#ccc" stroke-width="1" stroke-dasharray="2,2"/>
    <circle cx="150" cy="9" r="3" fill="#f8f8f8" stroke="#ccc" stroke-width="1" stroke-dasharray="2,2"/>
    <circle cx="170" cy="9" r="3" fill="#f8f8f8" stroke="#ccc" stroke-width="1" stroke-dasharray="2,2"/>
    <circle cx="190" cy="9" r="3" fill="#f8f8f8" stroke="#ccc" stroke-width="1" stroke-dasharray="2,2"/>
    <circle cx="210" cy="9" r="3" fill="#f8f8f8" stroke="#ccc" stroke-width="1" stroke-dasharray="2,2"/>
    <circle cx="230" cy="9" r="3" fill="#f8f8f8" stroke="#ccc" stroke-width="1" stroke-dasharray="2,2"/>
    <circle cx="250" cy="9" r="3" fill="#f8f8f8" stroke="#ccc" stroke-width="1" stroke-dasharray="2,2"/>
    <circle cx="270" cy="9" r="3" fill="#f8f8f8" stroke="#ccc" stroke-width="1" stroke-dasharray="2,2"/>
    <circle cx="290" cy="9" r="3" fill="#f8f8f8" stroke="#ccc" stroke-width="1" stroke-dasharray="2,2"/>
    <circle cx="310" cy="9" r="3" fill="#f8f8f8" stroke="#ccc" stroke-width="1" stroke-dasharray="2,2"/>
  </g>
  
  <!-- Row 9 -->
  <g transform="translate(70, 295)">
    <text x="0" y="12" font-family="Arial, sans-serif" font-size="10" font-weight="bold" fill="#333">9</text>
    <circle cx="90" cy="9" r="3" fill="#f8f8f8" stroke="#ccc" stroke-width="1" stroke-dasharray="2,2"/>
    <circle cx="110" cy="9" r="3" fill="#f8f8f8" stroke="#ccc" stroke-width="1" stroke-dasharray="2,2"/>
    <circle cx="130" cy="9" r="3" fill="#f8f8f8" stroke="#ccc" stroke-width="1" stroke-dasharray="2,2"/>
    <circle cx="150" cy="9" r="3" fill="#f8f8f8" stroke="#ccc" stroke-width="1" stroke-dasharray="2,2"/>
    <circle cx="170" cy="9" r="3" fill="#f8f8f8" stroke="#ccc" stroke-width="1" stroke-dasharray="2,2"/>
    <circle cx="190" cy="9" r="3" fill="#f8f8f8" stroke="#ccc" stroke-width="1" stroke-dasharray="2,2"/>
    <circle cx="210" cy="9" r="3" fill="#f8f8f8" stroke="#ccc" stroke-width="1" stroke-dasharray="2,2"/>
    <circle cx="230" cy="9" r="3" fill="#f8f8f8" stroke="#ccc" stroke-width="1" stroke-dasharray="2,2"/>
    <circle cx="250" cy="9" r="3" fill="#f8f8f8" stroke="#ccc" stroke-width="1" stroke-dasharray="2,2"/>
    <circle cx="270" cy="9" r="3" fill="#f8f8f8" stroke="#ccc" stroke-width="1" stroke-dasharray="2,2"/>
    <circle cx="290" cy="9" r="3" fill="#f8f8f8" stroke="#ccc" stroke-width="1" stroke-dasharray="2,2"/>
    <circle cx="310" cy="9" r="3" fill="#f8f8f8" stroke="#ccc" stroke-width="1" stroke-dasharray="2,2"/>
  </g>
  
  <!-- Row 10 -->
  <g transform="translate(70, 315)">
    <text x="0" y="12" font-family="Arial, sans-serif" font-size="10" font-weight="bold" fill="#333">10</text>
    <circle cx="90" cy="9" r="3" fill="#f8f8f8" stroke="#ccc" stroke-width="1" stroke-dasharray="2,2"/>
    <circle cx="110" cy="9" r="3" fill="#f8f8f8" stroke="#ccc" stroke-width="1" stroke-dasharray="2,2"/>
    <circle cx="130" cy="9" r="3" fill="#f8f8f8" stroke="#ccc" stroke-width="1" stroke-dasharray="2,2"/>
    <circle cx="150" cy="9" r="3" fill="#f8f8f8" stroke="#ccc" stroke-width="1" stroke-dasharray="2,2"/>
    <circle cx="170" cy="9" r="3" fill="#f8f8f8" stroke="#ccc" stroke-width="1" stroke-dasharray="2,2"/>
    <circle cx="190" cy="9" r="3" fill="#f8f8f8" stroke="#ccc" stroke-width="1" stroke-dasharray="2,2"/>
    <circle cx="210" cy="9" r="3" fill="#f8f8f8" stroke="#ccc" stroke-width="1" stroke-dasharray="2,2"/>
    <circle cx="230" cy="9" r="3" fill="#f8f8f8" stroke="#ccc" stroke-width="1" stroke-dasharray="2,2"/>
    <circle cx="250" cy="9" r="3" fill="#f8f8f8" stroke="#ccc" stroke-width="1" stroke-dasharray="2,2"/>
    <circle cx="270" cy="9" r="3" fill="#f8f8f8" stroke="#ccc" stroke-width="1" stroke-dasharray="2,2"/>
    <circle cx="290" cy="9" r="3" fill="#f8f8f8" stroke="#ccc" stroke-width="1" stroke-dasharray="2,2"/>
    <circle cx="310" cy="9" r="3" fill="#f8f8f8" stroke="#ccc" stroke-width="1" stroke-dasharray="2,2"/>
  </g>
  
  <!-- Row 11 -->
  <g transform="translate(70, 335)">
    <text x="0" y="12" font-family="Arial, sans-serif" font-size="10" font-weight="bold" fill="#333">11</text>
    <circle cx="90" cy="9" r="3" fill="#f8f8f8" stroke="#ccc" stroke-width="1" stroke-dasharray="2,2"/>
    <circle cx="110" cy="9" r="3" fill="#f8f8f8" stroke="#ccc" stroke-width="1" stroke-dasharray="2,2"/>
    <circle cx="130" cy="9" r="3" fill="#f8f8f8" stroke="#ccc" stroke-width="1" stroke-dasharray="2,2"/>
    <circle cx="150" cy="9" r="3" fill="#f8f8f8" stroke="#ccc" stroke-width="1" stroke-dasharray="2,2"/>
    <circle cx="170" cy="9" r="3" fill="#f8f8f8" stroke="#ccc" stroke-width="1" stroke-dasharray="2,2"/>
    <circle cx="190" cy="9" r="3" fill="#f8f8f8" stroke="#ccc" stroke-width="1" stroke-dasharray="2,2"/>
    <circle cx="210" cy="9" r="3" fill="#f8f8f8" stroke="#ccc" stroke-width="1" stroke-dasharray="2,2"/>
    <circle cx="230" cy="9" r="3" fill="#f8f8f8" stroke="#ccc" stroke-width="1" stroke-dasharray="2,2"/>
    <circle cx="250" cy="9" r="3" fill="#f8f8f8" stroke="#ccc" stroke-width="1" stroke-dasharray="2,2"/>
    <circle cx="270" cy="9" r="3" fill="#f8f8f8" stroke="#ccc" stroke-width="1" stroke-dasharray="2,2"/>
    <circle cx="290" cy="9" r="3" fill="#f8f8f8" stroke="#ccc" stroke-width="1" stroke-dasharray="2,2"/>
    <circle cx="310" cy="9" r="3" fill="#f8f8f8" stroke="#ccc" stroke-width="1" stroke-dasharray="2,2"/>
  </g>
  
  <!-- Row 12 -->
  <g transform="translate(70, 355)">
    <text x="0" y="12" font-family="Arial, sans-serif" font-size="10" font-weight="bold" fill="#333">12</text>
    <circle cx="90" cy="9" r="3" fill="#f8f8f8" stroke="#ccc" stroke-width="1" stroke-dasharray="2,2"/>
    <circle cx="110" cy="9" r="3" fill="#f8f8f8" stroke="#ccc" stroke-width="1" stroke-dasharray="2,2"/>
    <circle cx="130" cy="9" r="3" fill="#f8f8f8" stroke="#ccc" stroke-width="1" stroke-dasharray="2,2"/>
    <circle cx="150" cy="9" r="3" fill="#f8f8f8" stroke="#ccc" stroke-width="1" stroke-dasharray="2,2"/>
    <circle cx="170" cy="9" r="3" fill="#f8f8f8" stroke="#ccc" stroke-width="1" stroke-dasharray="2,2"/>
    <circle cx="190" cy="9" r="3" fill="#f8f8f8" stroke="#ccc" stroke-width="1" stroke-dasharray="2,2"/>
    <circle cx="210" cy="9" r="3" fill="#f8f8f8" stroke="#ccc" stroke-width="1" stroke-dasharray="2,2"/>
    <circle cx="230" cy="9" r="3" fill="#f8f8f8" stroke="#ccc" stroke-width="1" stroke-dasharray="2,2"/>
    <circle cx="250" cy="9" r="3" fill="#f8f8f8" stroke="#ccc" stroke-width="1" stroke-dasharray="2,2"/>
    <circle cx="270" cy="9" r="3" fill="#f8f8f8" stroke="#ccc" stroke-width="1" stroke-dasharray="2,2"/>
    <circle cx="290" cy="9" r="3" fill="#f8f8f8" stroke="#ccc" stroke-width="1" stroke-dasharray="2,2"/>
    <circle cx="310" cy="9" r="3" fill="#f8f8f8" stroke="#ccc" stroke-width="1" stroke-dasharray="2,2"/>
  </g>
</svg>